<?xml version="1.0" encoding="utf-8"?>
<!-- Generator: Adobe Illustrator 16.0.4, SVG Export Plug-In . SVG Version: 6.00 Build 0)  -->
<!DOCTYPE svg PUBLIC "-//W3C//DTD SVG 1.1//EN" "http://www.w3.org/Graphics/SVG/1.1/DTD/svg11.dtd">
<svg version="1.1" id="Layer_1" xmlns="http://www.w3.org/2000/svg" xmlns:xlink="http://www.w3.org/1999/xlink" x="0px" y="0px"
	 width="502.475px" height="98.482px" viewBox="0 0 502.475 98.482" enable-background="new 0 0 502.475 98.482"
	 xml:space="preserve">
<rect x="-46.604" y="-110.592" display="none" fill="#2F3C51" width="600" height="304"/>
<text transform="matrix(1 0 0 1 -472.4355 -202.0332)" fill="#16B2AA" font-family="'AbrilText-Regular'" font-size="79.7037" letter-spacing="-1">genomedic</text>
<g>
	<path fill="#16B2AA" stroke="#17B2AA" stroke-linecap="round" stroke-linejoin="round" stroke-miterlimit="10" d="M-547.18-241.759
		c-9.733,0.001-17.621,8.617-17.622,19.245c0,10.63,7.891,19.249,17.623,19.249h20.482l0.001-38.493L-547.18-241.759z"/>
	<path fill="#16B2AA" stroke="#17B2AA" stroke-linecap="round" stroke-linejoin="round" stroke-miterlimit="10" d="
		M-481.835-222.514c-0.001-10.628-7.889-19.245-17.622-19.244h-20.485l0.001,38.493h20.483
		C-489.726-203.265-481.836-211.884-481.835-222.514z"/>
	<g>
		<polyline fill="#16B2AA" points="-545.834,-203.109 -545.834,-190.914 -526.696,-203.109 		"/>
		<polyline fill="none" stroke="#17B2AA" stroke-linecap="round" stroke-linejoin="round" stroke-miterlimit="10" points="
			-545.834,-203.109 -545.834,-190.914 -526.696,-203.109 		"/>
	</g>
</g>
<g>
	<g>
		<path fill="#E4EBED" d="M142.507,29.063c-2.484,1.442-5.851,3.927-7.693,6.251c0.881,0.961,3.045,3.286,3.045,8.334
			c0,8.654-7.373,12.742-14.665,12.742c-2.084,0-3.125-0.08-4.087-0.32c-1.763,1.201-3.045,3.125-3.045,4.648
			c0,1.682,1.923,2.082,9.697,2.082c10.418,0,16.989,1.203,16.989,9.777c0,9.777-9.617,13.945-19.313,13.945
			c-10.659,0-17.871-3.527-17.871-11.381c0-1.844,0.32-3.365,0.561-3.926c1.442-1.123,5.61-0.723,6.17,0.961
			c-0.16,0.48-0.24,1.443-0.24,2.324c0,4.088,4.087,6.49,11.62,6.49s12.662-2.725,12.662-7.611c0-3.928-2.645-4.969-10.659-4.969
			c-10.498,0-15.948-0.643-15.948-4.969c0-3.848,2.645-6.973,4.648-8.736c-1.442-0.801-6.171-3.525-6.171-11.059
			c0-8.415,6.812-12.822,14.746-12.822c3.606,0,5.69,0.721,7.132,1.362c1.442-2.003,5.931-6.171,9.136-7.613
			C141.145,24.495,142.827,27.06,142.507,29.063z M122.873,35.875c-4.889,0-8.334,2.885-8.334,7.773
			c0,4.809,3.366,7.693,8.334,7.693c4.808,0,8.655-2.805,8.655-7.693C131.527,38.68,127.761,35.875,122.873,35.875z"/>
		<path fill="#E4EBED" d="M164.785,63.203c5.69,0,9.777-1.924,11.059-2.564c0.882-0.08,1.763,0.721,2.244,1.922
			c0.481,1.283,0.32,2.564-0.16,3.045c-1.683,0.963-6.091,3.127-13.463,3.127c-11.22,0-19.474-6.332-19.474-18.593
			c0-12.261,8.575-19.313,17.871-19.313c10.819,0,15.307,8.334,15.307,16.268c0,0.802-0.24,1.043-2.083,1.443
			c-6.01,1.201-18.352,2.564-24.603,2.805C151.962,59.035,157.812,63.203,164.785,63.203z M169.513,44.529
			c1.282-0.24,1.522-0.4,1.522-0.961c0-3.286-2.965-7.373-8.495-7.373c-5.37,0-10.258,3.687-10.979,10.338
			C156.29,46.373,165.907,45.331,169.513,44.529z"/>
		<path fill="#E4EBED" d="M210.704,30.826c11.139,0,13.143,7.453,13.143,16.428V61.76c0,0.4,0.161,0.641,0.561,0.641h4.809
			c0.721,0.24,1.122,1.443,1.122,2.564c0,1.123-0.4,2.324-1.122,2.564h-16.83c-0.721-0.24-1.202-1.441-1.202-2.564
			c0-1.121,0.48-2.324,1.202-2.564h4.568c0.561,0,0.641-0.24,0.641-0.641V47.896c0-7.533-2.164-11.54-8.495-11.54
			c-5.93,0-10.498,4.167-12.101,8.094c-0.961,2.004-1.282,3.688-1.282,6.011v11.3c0,0.4,0.161,0.641,0.561,0.641h4.809
			c0.641,0.24,1.122,1.443,1.122,2.564c0,1.123-0.401,2.324-1.122,2.564h-16.829c-0.802-0.24-1.202-1.441-1.202-2.564
			c0-1.121,0.481-2.324,1.202-2.564h4.568c0.48,0,0.641-0.24,0.641-0.641V38.52c0-1.042-0.321-1.362-1.282-1.362h-4.167
			c-0.48-0.241-0.961-1.363-0.961-2.564c0-1.122,0.4-2.164,1.042-2.484l9.938-0.641c1.122-0.08,1.683,0.24,1.683,1.683v5.29
			l0.321,0.08C198.042,35.314,202.45,30.826,210.704,30.826z"/>
		<path fill="#E4EBED" d="M252.216,68.732c-12.021,0-18.753-8.014-18.753-18.834c0-10.898,6.972-19.072,18.753-19.072
			c11.62,0,18.672,8.174,18.672,19.072C270.888,60.719,263.836,68.732,252.216,68.732z M252.216,36.275
			c-8.254,0-12.262,6.892-12.262,13.623c0,7.293,4.007,13.385,12.262,13.385c7.934,0,12.181-5.932,12.181-13.385
			C264.396,42.606,260.069,36.275,252.216,36.275z"/>
		<path fill="#E4EBED" d="M302.703,30.826c6.892,0,10.418,3.847,11.38,7.693l0.4,0.16c1.923-3.125,6.731-7.854,14.986-7.854
			c10.578,0,12.501,7.453,12.501,16.428V61.76c0,0.4,0.16,0.641,0.642,0.641h4.728c0.722,0.24,1.122,1.443,1.122,2.564
			c0,1.123-0.4,2.324-1.122,2.564h-16.829c-0.721-0.24-1.202-1.441-1.202-2.564c0-1.121,0.481-2.324,1.202-2.564h4.648
			c0.48,0,0.561-0.24,0.561-0.641V47.896c0-7.533-2.163-11.54-7.612-11.54c-5.771,0-10.178,3.927-11.861,7.774
			c-0.881,2.003-1.202,3.686-1.202,6.01v11.62c0,0.4,0.16,0.641,0.562,0.641h4.728c0.722,0.24,1.202,1.443,1.202,2.564
			c0,1.123-0.4,2.324-1.202,2.564h-16.829c-0.721-0.24-1.202-1.441-1.202-2.564c0-1.121,0.562-2.324,1.202-2.564h4.648
			c0.48,0,0.641-0.24,0.641-0.641V47.896c0-7.533-2.163-11.54-7.613-11.54c-5.77,0-10.258,4.167-11.86,8.094
			c-0.962,2.004-1.282,3.688-1.282,6.011v11.3c0,0.4,0.16,0.641,0.562,0.641h4.808c0.642,0.24,1.122,1.443,1.122,2.564
			c0,1.123-0.4,2.324-1.122,2.564h-16.829c-0.801-0.24-1.202-1.441-1.202-2.564c0-1.121,0.481-2.324,1.202-2.564h4.568
			c0.48,0,0.641-0.24,0.641-0.641V38.52c0-1.042-0.32-1.362-1.282-1.362h-4.167c-0.48-0.241-0.962-1.363-0.962-2.564
			c0-1.122,0.401-2.244,1.042-2.484l9.938-0.641c1.202-0.08,1.683,0.24,1.683,1.683v5.29l0.32,0.08
			C290.361,35.314,294.368,30.826,302.703,30.826z"/>
		<path fill="#E4EBED" d="M371.462,63.203c5.69,0,9.777-1.924,11.06-2.564c0.881-0.08,1.763,0.721,2.244,1.922
			c0.48,1.283,0.32,2.564-0.161,3.045c-1.683,0.963-6.09,3.127-13.463,3.127c-11.22,0-19.474-6.332-19.474-18.593
			c0-12.261,8.574-19.313,17.871-19.313c10.818,0,15.307,8.334,15.307,16.268c0,0.802-0.241,1.043-2.084,1.443
			c-6.011,1.201-18.352,2.564-24.603,2.805C358.64,59.035,364.49,63.203,371.462,63.203z M376.19,44.529
			c1.282-0.24,1.522-0.4,1.522-0.961c0-3.286-2.965-7.373-8.495-7.373c-5.369,0-10.258,3.687-10.979,10.338
			C362.967,46.373,372.584,45.331,376.19,44.529z"/>
		<path fill="#E4EBED" d="M419.625,15.359c0-0.962-0.321-1.282-1.202-1.282h-5.129c-0.722-0.161-1.202-1.443-1.202-2.564
			c0-1.122,0.4-2.324,1.202-2.564l10.898-0.641c1.202-0.08,1.684,0.4,1.684,1.683v40.711c0,4.407,0.32,8.494,0.721,9.775
			c0.4,1.443,0.642,1.924,2.164,1.924h2.965c0.642,0.24,1.122,1.443,1.122,2.564c0,1.123-0.4,2.324-1.122,2.564h-8.495
			c-1.281,0-1.763-0.16-2.163-1.121c-0.481-1.043-1.042-3.607-1.122-5.289l-0.48-0.16c-2.004,3.125-6.492,7.773-14.266,7.773
			c-10.097,0-15.065-6.973-15.065-17.15c0-11.62,6.972-20.756,19.153-20.756c5.129,0,8.814,1.442,10.338,2.805V15.359z
			 M419.625,44.049c0-2.885-0.401-3.766-1.604-4.968c-1.442-1.443-4.247-2.805-8.814-2.805c-8.015,0-12.582,6.171-12.582,14.746
			c0,7.053,3.445,12.182,9.856,12.182s10.178-4.248,11.861-8.095c0.801-1.763,1.282-3.687,1.282-6.171V44.049z"/>
		<path fill="#E4EBED" d="M448.073,61.76c0,0.4,0.16,0.641,0.642,0.641h4.728c0.722,0.24,1.202,1.443,1.202,2.564
			c0,1.123-0.48,2.324-1.202,2.564h-16.829c-0.721-0.24-1.202-1.441-1.202-2.564c0-1.121,0.481-2.324,1.202-2.564h4.648
			c0.48,0,0.561-0.24,0.561-0.641V38.52c0-1.042-0.24-1.362-1.121-1.362h-4.328c-0.561-0.241-0.962-1.363-0.962-2.564
			c0-1.202,0.401-2.244,1.042-2.484l10.018-0.641c1.202-0.08,1.603,0.4,1.603,1.683V61.76z M444.066,12.474
			c2.564,0,4.729,2.164,4.729,4.729c0,2.645-2.164,4.808-4.729,4.808c-2.645,0-4.809-2.164-4.809-4.808
			C439.258,14.638,441.422,12.474,444.066,12.474z"/>
		<path fill="#E4EBED" d="M484.216,43.568c0.08-1.202,0.08-4.889-0.321-5.77c-0.4-0.802-1.522-1.683-5.449-1.683
			c-8.334,0-13.383,6.411-13.383,13.944c0,7.772,4.728,13.224,13.543,13.224c5.369,0,9.457-2.244,10.498-2.887
			c2.084,0,3.446,2.967,2.564,4.969c-1.683,1.123-6.17,3.367-13.623,3.367c-12.102,0-19.474-6.812-19.474-18.593
			c0-11.059,7.773-19.313,20.756-19.313c6.892,0,9.296,1.522,10.098,2.725c0.801,1.202,0.881,7.854,0.801,9.937
			C489.023,44.77,485.338,44.689,484.216,43.568z"/>
	</g>
</g>
<g>
	<g>
		<g>
			<path fill="#1BB6C7" d="M31.73,31.347c-9.322,0.001-16.878,8.254-16.879,18.434c0,10.182,7.558,18.438,16.879,18.438H51.35
				l0.001-36.871L31.73,31.347z"/>
			<path fill="none" stroke="#1BB6C7" stroke-linecap="round" stroke-linejoin="round" stroke-miterlimit="10" d="M31.73,31.347
				c-9.322,0.001-16.878,8.254-16.879,18.434c0,10.182,7.558,18.438,16.879,18.438H51.35l0.001-36.871L31.73,31.347z"/>
		</g>
		<g>
			<g>
				<path fill="#41B8B1" d="M94.319,49.781c0-10.18-7.556-18.434-16.878-18.433H57.819l0.001,36.871h19.619
					C86.763,68.219,94.319,59.963,94.319,49.781z"/>
			</g>
			<g>
				<path fill="none" stroke="#41B8B1" stroke-linecap="round" stroke-linejoin="round" stroke-miterlimit="10" d="M94.319,49.781
					c0-10.18-7.556-18.434-16.878-18.433H57.819l0.001,36.871h19.619C86.763,68.219,94.319,59.963,94.319,49.781z"/>
			</g>
		</g>
		<g>
			<polyline fill="#1BB6C7" stroke="#1BB6C7" stroke-linecap="round" stroke-linejoin="round" stroke-miterlimit="10" points="
				33.02,68.367 33.02,80.049 51.351,68.367 			"/>
			<polyline fill="#1BB6C7" stroke="#1BB6C7" stroke-linecap="round" stroke-linejoin="round" stroke-miterlimit="10" points="
				33.02,68.367 33.02,80.049 51.351,68.367 			"/>
		</g>
	</g>
</g>
</svg>
